<?xml version="1.0" encoding="UTF-8" standalone="no"?>
<svg
   xmlns:dc="http://purl.org/dc/elements/1.1/"
   xmlns:cc="http://creativecommons.org/ns#"
   xmlns:rdf="http://www.w3.org/1999/02/22-rdf-syntax-ns#"
   xmlns:svg="http://www.w3.org/2000/svg"
   xmlns="http://www.w3.org/2000/svg"
   viewBox="0 0 625.33331 271"
   height="271"
   width="625.33331"
   xml:space="preserve"
   id="svg2"
   version="1.1"><metadata
     id="metadata8"><rdf:RDF><cc:Work
         rdf:about=""><dc:format>image/svg+xml</dc:format><dc:type
           rdf:resource="http://purl.org/dc/dcmitype/StillImage" /><dc:title></dc:title></cc:Work></rdf:RDF></metadata><defs
     id="defs6"><clipPath
       id="clipPath18"
       clipPathUnits="userSpaceOnUse"><path
         id="path16"
         d="M 0,203.25 H 469 V 0 H 0 Z" /></clipPath><clipPath
       id="clipPath30"
       clipPathUnits="userSpaceOnUse"><path
         id="path28"
         d="m 288.911,119.414 h 100.49 V 17.5225 h -100.49 z" /></clipPath><clipPath
       id="clipPath58"
       clipPathUnits="userSpaceOnUse"><path
         id="path56"
         d="M 0,203.25 H 469 V 0 H 0 Z" /></clipPath><clipPath
       id="clipPath66"
       clipPathUnits="userSpaceOnUse"><path
         id="path64"
         d="M 358.324,130.78 H 460.423 V 32.7803 H 358.324 Z" /></clipPath><clipPath
       id="clipPath94"
       clipPathUnits="userSpaceOnUse"><path
         id="path92"
         d="M 0,203.25 H 469 V 0 H 0 Z" /></clipPath><clipPath
       id="clipPath102"
       clipPathUnits="userSpaceOnUse"><path
         id="path100"
         d="m 338.012,187.195 h 77.987 v -77.637 h -77.987 z" /></clipPath><clipPath
       id="clipPath130"
       clipPathUnits="userSpaceOnUse"><path
         id="path128"
         d="M 0,203.25 H 469 V 0 H 0 Z" /></clipPath><clipPath
       id="clipPath138"
       clipPathUnits="userSpaceOnUse"><path
         id="path136"
         d="m 257.894,168.346 h 111.68 V 78.6724 h -111.68 z" /></clipPath><clipPath
       id="clipPath170"
       clipPathUnits="userSpaceOnUse"><path
         id="path168"
         d="M 0,203.25 H 469 V 0 H 0 Z" /></clipPath><clipPath
       id="clipPath190"
       clipPathUnits="userSpaceOnUse"><path
         id="path188"
         d="M 0,203.25 H 469 V 0 H 0 Z" /></clipPath><clipPath
       id="clipPath210"
       clipPathUnits="userSpaceOnUse"><path
         id="path208"
         d="M 0,203.25 H 469 V 0 H 0 Z" /></clipPath><clipPath
       id="clipPath230"
       clipPathUnits="userSpaceOnUse"><path
         id="path228"
         d="M 0,203.25 H 469 V 0 H 0 Z" /></clipPath><clipPath
       id="clipPath254"
       clipPathUnits="userSpaceOnUse"><path
         id="path252"
         d="M 0,203.25 H 469 V 0 H 0 Z" /></clipPath><clipPath
       id="clipPath264"
       clipPathUnits="userSpaceOnUse"><path
         id="path262"
         d="M 10.5669,172.506 H 122.441 V 108.398 H 10.5669 Z" /></clipPath><clipPath
       id="clipPath292"
       clipPathUnits="userSpaceOnUse"><path
         id="path290"
         d="M 0,203.25 H 469 V 0 H 0 Z" /></clipPath><clipPath
       id="clipPath300"
       clipPathUnits="userSpaceOnUse"><path
         id="path298"
         d="M 80.043,168.418 H 191.989 V 78.207 H 80.043 Z" /></clipPath><clipPath
       id="clipPath328"
       clipPathUnits="userSpaceOnUse"><path
         id="path326"
         d="M 0,203.25 H 469 V 0 H 0 Z" /></clipPath><clipPath
       id="clipPath336"
       clipPathUnits="userSpaceOnUse"><path
         id="path334"
         d="M 35.7261,90.8188 H 127.484 V 30.0176 H 35.7261 Z" /></clipPath><clipPath
       id="clipPath364"
       clipPathUnits="userSpaceOnUse"><path
         id="path362"
         d="M 0,203.25 H 469 V 0 H 0 Z" /></clipPath><clipPath
       id="clipPath388"
       clipPathUnits="userSpaceOnUse"><path
         id="path386"
         d="M 0,203.25 H 469 V 0 H 0 Z" /></clipPath><clipPath
       id="clipPath408"
       clipPathUnits="userSpaceOnUse"><path
         id="path406"
         d="M 0,203.25 H 469 V 0 H 0 Z" /></clipPath><clipPath
       id="clipPath428"
       clipPathUnits="userSpaceOnUse"><path
         id="path426"
         d="M 0,203.25 H 469 V 0 H 0 Z" /></clipPath><clipPath
       id="clipPath448"
       clipPathUnits="userSpaceOnUse"><path
         id="path446"
         d="M 0,203.25 H 469 V 0 H 0 Z" /></clipPath><clipPath
       id="clipPath472"
       clipPathUnits="userSpaceOnUse"><path
         id="path470"
         d="M 0,203.25 H 469 V 0 H 0 Z" /></clipPath><clipPath
       id="clipPath516"
       clipPathUnits="userSpaceOnUse"><path
         id="path514"
         d="M 0,203.25 H 469 V 0 H 0 Z" /></clipPath></defs><g
     transform="matrix(1.3333333,0,0,-1.3333333,0,271)"
     id="g10"><g
       id="g12"><g
         clip-path="url(#clipPath18)"
         id="g14"><g
           transform="translate(467,14.25)"
           id="g20"><path
             id="path22"
             style="fill:none;stroke:#1d1d1b;stroke-width:1;stroke-linecap:butt;stroke-linejoin:miter;stroke-miterlimit:10;stroke-dasharray:none;stroke-opacity:1"
             d="m 0,0 c 0,-6.627 -5.372,-12 -12,-12 h -189.357 c -6.627,0 -12,5.373 -12,12 v 174.268 c 0,6.628 5.373,12 12,12 H -12 c 6.628,0 12,-5.372 12,-12 z" /></g><g
           id="g24"><g
             id="g26" /><g
             id="g42"><g
               id="g40"
               opacity="0.899994"
               clip-path="url(#clipPath30)"><g
                 id="g34"
                 transform="translate(355.7334,18.1924)"><path
                   id="path32"
                   style="fill:#9d9c9c;fill-opacity:1;fill-rule:nonzero;stroke:none"
                   d="m 0,0 c -21.071,10.186 -42.577,23.632 -66.21,37.721 7.864,21.313 15.83,42.582 25.797,62.804 C -12.789,84.876 11.002,69.299 32.926,56.696 20.033,39.738 9.632,20.443 0,0" /></g><g
                 id="g38"
                 transform="translate(355.7334,18.1924)"><path
                   id="path36"
                   style="fill:none;stroke:#1d1d1b;stroke-width:1;stroke-linecap:butt;stroke-linejoin:miter;stroke-miterlimit:10;stroke-dasharray:none;stroke-opacity:1"
                   d="m 0,0 c -21.071,10.186 -42.577,23.632 -66.21,37.721 7.864,21.313 15.83,42.582 25.797,62.804 C -12.789,84.876 11.002,69.299 32.926,56.696 20.033,39.738 9.632,20.443 0,0 Z" /></g></g></g></g></g></g><text
       id="text46"
       style="font-style:italic;font-variant:normal;font-weight:normal;font-stretch:normal;font-size:14px;font-family:'Times New Roman';-inkscape-font-specification:TimesNewRomanPS-ItalicMT;writing-mode:lr-tb;fill:#1d1d1b;fill-opacity:1;fill-rule:nonzero;stroke:none"
       transform="matrix(1,0,0,-1,300.397,56.6455)"><tspan
         id="tspan44"
         y="0"
         x="0">X</tspan></text><text
       id="text50"
       style="font-style:italic;font-variant:normal;font-weight:normal;font-stretch:normal;font-size:8.162px;font-family:'Times New Roman';-inkscape-font-specification:TimesNewRomanPS-ItalicMT;writing-mode:lr-tb;fill:#1d1d1b;fill-opacity:1;fill-rule:nonzero;stroke:none"
       transform="matrix(1,0,0,-1,308.9487,51.9834)"><tspan
         id="tspan48"
         y="0"
         x="0">3</tspan></text><g
       id="g52"><g
         clip-path="url(#clipPath58)"
         id="g54"><g
           id="g60"><g
             id="g62" /><g
             id="g78"><g
               id="g76"
               opacity="0.899994"
               clip-path="url(#clipPath66)"><g
                 id="g70"
                 transform="translate(425.2334,33.5186)"><path
                   id="path68"
                   style="fill:#9d9c9c;fill-opacity:1;fill-rule:nonzero;stroke:none"
                   d="m 0,0 c -19.485,12.853 -42.156,19.18 -66.374,23.561 2.089,25.422 11.811,48.821 22.031,73.147 25.406,-3.93 51.901,-3.257 78.915,-3.401 C 26.685,56.25 12.203,26.585 0,0" /></g><g
                 id="g74"
                 transform="translate(425.2334,33.5186)"><path
                   id="path72"
                   style="fill:none;stroke:#1d1d1b;stroke-width:1;stroke-linecap:butt;stroke-linejoin:miter;stroke-miterlimit:10;stroke-dasharray:none;stroke-opacity:1"
                   d="m 0,0 c -19.485,12.853 -42.156,19.18 -66.374,23.561 2.089,25.422 11.811,48.821 22.031,73.147 25.406,-3.93 51.901,-3.257 78.915,-3.401 C 26.685,56.25 12.203,26.585 0,0 Z" /></g></g></g></g></g></g><text
       id="text82"
       style="font-style:italic;font-variant:normal;font-weight:normal;font-stretch:normal;font-size:14px;font-family:'Times New Roman';-inkscape-font-specification:TimesNewRomanPS-ItalicMT;writing-mode:lr-tb;fill:#1d1d1b;fill-opacity:1;fill-rule:nonzero;stroke:none"
       transform="matrix(1,0,0,-1,432.147,112.083)"><tspan
         id="tspan80"
         y="0"
         x="0">X</tspan></text><text
       id="text86"
       style="font-style:italic;font-variant:normal;font-weight:normal;font-stretch:normal;font-size:8.162px;font-family:'Times New Roman';-inkscape-font-specification:TimesNewRomanPS-ItalicMT;writing-mode:lr-tb;fill:#1d1d1b;fill-opacity:1;fill-rule:nonzero;stroke:none"
       transform="matrix(1,0,0,-1,440.6987,107.4209)"><tspan
         id="tspan84"
         y="0"
         x="0">2</tspan></text><g
       id="g88"><g
         clip-path="url(#clipPath94)"
         id="g90"><g
           id="g96"><g
             id="g98" /><g
             id="g114"><g
               id="g112"
               opacity="0.899994"
               clip-path="url(#clipPath102)"><g
                 id="g106"
                 transform="translate(407.7793,110.0928)"><path
                   id="path104"
                   style="fill:#9d9c9c;fill-opacity:1;fill-rule:nonzero;stroke:none"
                   d="m 0,0 c -20.52,1.371 -41.039,4.503 -61.559,9.398 -0.793,18.868 -3.329,37.348 -7.607,55.44 25.591,6.105 51.183,10.013 76.773,11.722 C 2.665,50.653 0.129,25.133 0,0" /></g><g
                 id="g110"
                 transform="translate(407.7793,110.0928)"><path
                   id="path108"
                   style="fill:none;stroke:#1d1d1b;stroke-width:1;stroke-linecap:butt;stroke-linejoin:miter;stroke-miterlimit:10;stroke-dasharray:none;stroke-opacity:1"
                   d="m 0,0 c -20.52,1.371 -41.039,4.503 -61.559,9.398 -0.793,18.868 -3.329,37.348 -7.607,55.44 25.591,6.105 51.183,10.013 76.773,11.722 C 2.665,50.653 0.129,25.133 0,0 Z" /></g></g></g></g></g></g><text
       id="text118"
       style="font-style:italic;font-variant:normal;font-weight:normal;font-stretch:normal;font-size:14px;font-family:'Times New Roman';-inkscape-font-specification:TimesNewRomanPS-ItalicMT;writing-mode:lr-tb;fill:#1d1d1b;fill-opacity:1;fill-rule:nonzero;stroke:none"
       transform="matrix(1,0,0,-1,395.4263,166.583)"><tspan
         id="tspan116"
         y="0"
         x="0">X</tspan></text><text
       id="text122"
       style="font-style:italic;font-variant:normal;font-weight:normal;font-stretch:normal;font-size:8.162px;font-family:'Times New Roman';-inkscape-font-specification:TimesNewRomanPS-ItalicMT;writing-mode:lr-tb;fill:#1d1d1b;fill-opacity:1;fill-rule:nonzero;stroke:none"
       transform="matrix(1,0,0,-1,403.978,161.9209)"><tspan
         id="tspan120"
         y="0"
         x="0">1</tspan></text><g
       id="g124"><g
         clip-path="url(#clipPath130)"
         id="g126"><g
           id="g132"><g
             id="g134" /><g
             id="g150"><g
               id="g148"
               opacity="0.800003"
               clip-path="url(#clipPath138)"><g
                 id="g142"
                 transform="translate(362.085,93.6172)"><path
                   id="path140"
                   style="fill:#dbd4a1;fill-opacity:1;fill-rule:nonzero;stroke:none"
                   d="m 0,0 c -0.772,-6.837 -6.717,-13.002 -13.292,-13.485 -23.157,-1.767 -46.413,-1.093 -69.382,2.007 -6.517,0.89 -12.461,6.936 -13.312,13.223 -2.541,19.695 -5.082,39.39 -7.622,59.085 -0.853,6.296 5.001,10.68 13.088,10.139 28.197,-1.938 56.484,-0.906 84.392,3.075 8,1.149 13.821,-3.19 13.049,-10.036 C 4.614,42.672 2.308,21.336 0,0" /></g><g
                 id="g146"
                 transform="translate(362.085,93.6172)"><path
                   id="path144"
                   style="fill:none;stroke:#1d1d1b;stroke-width:1;stroke-linecap:butt;stroke-linejoin:miter;stroke-miterlimit:10;stroke-dasharray:none;stroke-opacity:1"
                   d="m 0,0 c -0.772,-6.837 -6.717,-13.002 -13.292,-13.485 -23.157,-1.767 -46.413,-1.093 -69.382,2.007 -6.517,0.89 -12.461,6.936 -13.312,13.223 -2.541,19.695 -5.082,39.39 -7.622,59.085 -0.853,6.296 5.001,10.68 13.088,10.139 28.197,-1.938 56.484,-0.906 84.392,3.075 8,1.149 13.821,-3.19 13.049,-10.036 C 4.614,42.672 2.308,21.336 0,0 Z" /></g></g></g></g></g></g><text
       id="text154"
       style="font-variant:normal;font-weight:normal;font-stretch:normal;font-size:14px;font-family:'Times New Roman';-inkscape-font-specification:TimesNewRomanPSMT;writing-mode:lr-tb;fill:#1d1d1b;fill-opacity:1;fill-rule:nonzero;stroke:none"
       transform="matrix(1,0,0,-1,263.6465,150.7529)"><tspan
         id="tspan152"
         y="0"
         x="0 7 14 19.445999">obs </tspan></text><text
       id="text158"
       style="font-style:italic;font-variant:normal;font-weight:normal;font-stretch:normal;font-size:14px;font-family:'Times New Roman';-inkscape-font-specification:TimesNewRomanPS-ItalicMT;writing-mode:lr-tb;fill:#1d1d1b;fill-opacity:1;fill-rule:nonzero;stroke:none"
       transform="matrix(1,0,0,-1,286.5925,150.7529)"><tspan
         id="tspan156"
         y="0"
         x="0">A</tspan></text><text
       id="text162"
       style="font-style:italic;font-variant:normal;font-weight:normal;font-stretch:normal;font-size:8.162px;font-family:'Times New Roman';-inkscape-font-specification:TimesNewRomanPS-ItalicMT;writing-mode:lr-tb;fill:#1d1d1b;fill-opacity:1;fill-rule:nonzero;stroke:none"
       transform="matrix(1,0,0,-1,295.1465,146.0908)"><tspan
         id="tspan160"
         y="0"
         x="0">2</tspan></text><g
       id="g164"><g
         clip-path="url(#clipPath170)"
         id="g166"><g
           transform="translate(335.7764,52.3828)"
           id="g172"><path
             id="path174"
             style="fill:#1d1d1b;fill-opacity:1;fill-rule:nonzero;stroke:none"
             d="m 0,0 c 0,-0.862 -0.7,-1.562 -1.562,-1.562 -0.863,0 -1.563,0.7 -1.563,1.562 0,0.863 0.7,1.562 1.563,1.562 C -0.7,1.562 0,0.863 0,0" /></g></g></g><text
       id="text178"
       style="font-style:italic;font-variant:normal;font-weight:normal;font-stretch:normal;font-size:12px;font-family:'Times New Roman';-inkscape-font-specification:TimesNewRomanPS-ItalicMT;writing-mode:lr-tb;fill:#1d1d1b;fill-opacity:1;fill-rule:nonzero;stroke:none"
       transform="matrix(1,0,0,-1,338.1338,49.4346)"><tspan
         id="tspan176"
         y="0"
         x="0">o</tspan></text><text
       id="text182"
       style="font-style:italic;font-variant:normal;font-weight:normal;font-stretch:normal;font-size:6.996px;font-family:'Times New Roman';-inkscape-font-specification:TimesNewRomanPS-ItalicMT;writing-mode:lr-tb;fill:#1d1d1b;fill-opacity:1;fill-rule:nonzero;stroke:none"
       transform="matrix(1,0,0,-1,344.1338,45.4385)"><tspan
         id="tspan180"
         y="0"
         x="0">4</tspan></text><g
       id="g184"><g
         clip-path="url(#clipPath190)"
         id="g186"><g
           transform="translate(314.6836,101.4761)"
           id="g192"><path
             id="path194"
             style="fill:#1d1d1b;fill-opacity:1;fill-rule:nonzero;stroke:none"
             d="m 0,0 c 0,-0.863 -0.699,-1.562 -1.562,-1.562 -0.864,0 -1.563,0.699 -1.563,1.562 0,0.863 0.699,1.562 1.563,1.562 C -0.699,1.562 0,0.863 0,0" /></g></g></g><text
       id="text198"
       style="font-style:italic;font-variant:normal;font-weight:normal;font-stretch:normal;font-size:12px;font-family:'Times New Roman';-inkscape-font-specification:TimesNewRomanPS-ItalicMT;writing-mode:lr-tb;fill:#1d1d1b;fill-opacity:1;fill-rule:nonzero;stroke:none"
       transform="matrix(1,0,0,-1,317.041,98.5264)"><tspan
         id="tspan196"
         y="0"
         x="0">o</tspan></text><text
       id="text202"
       style="font-style:italic;font-variant:normal;font-weight:normal;font-stretch:normal;font-size:6.996px;font-family:'Times New Roman';-inkscape-font-specification:TimesNewRomanPS-ItalicMT;writing-mode:lr-tb;fill:#1d1d1b;fill-opacity:1;fill-rule:nonzero;stroke:none"
       transform="matrix(1,0,0,-1,323.041,94.5303)"><tspan
         id="tspan200"
         y="0"
         x="0">2</tspan></text><g
       id="g204"><g
         clip-path="url(#clipPath210)"
         id="g206"><g
           transform="translate(351.542,133.7529)"
           id="g212"><path
             id="path214"
             style="fill:#1d1d1b;fill-opacity:1;fill-rule:nonzero;stroke:none"
             d="m 0,0 c 0,-0.863 -0.7,-1.562 -1.562,-1.562 -0.863,0 -1.563,0.699 -1.563,1.562 0,0.863 0.7,1.562 1.563,1.562 C -0.7,1.562 0,0.863 0,0" /></g></g></g><text
       id="text218"
       style="font-style:italic;font-variant:normal;font-weight:normal;font-stretch:normal;font-size:12px;font-family:'Times New Roman';-inkscape-font-specification:TimesNewRomanPS-ItalicMT;writing-mode:lr-tb;fill:#1d1d1b;fill-opacity:1;fill-rule:nonzero;stroke:none"
       transform="matrix(1,0,0,-1,353.8994,130.8037)"><tspan
         id="tspan216"
         y="0"
         x="0">o</tspan></text><text
       id="text222"
       style="font-style:italic;font-variant:normal;font-weight:normal;font-stretch:normal;font-size:6.996px;font-family:'Times New Roman';-inkscape-font-specification:TimesNewRomanPS-ItalicMT;writing-mode:lr-tb;fill:#1d1d1b;fill-opacity:1;fill-rule:nonzero;stroke:none"
       transform="matrix(1,0,0,-1,359.8994,126.8076)"><tspan
         id="tspan220"
         y="0"
         x="0">1</tspan></text><g
       id="g224"><g
         clip-path="url(#clipPath230)"
         id="g226"><g
           transform="translate(275.5684,128.3838)"
           id="g232"><path
             id="path234"
             style="fill:#1d1d1b;fill-opacity:1;fill-rule:nonzero;stroke:none"
             d="m 0,0 c 0,-0.863 -0.7,-1.562 -1.562,-1.562 -0.863,0 -1.563,0.699 -1.563,1.562 0,0.863 0.7,1.562 1.563,1.562 C -0.7,1.562 0,0.863 0,0" /></g></g></g><text
       id="text238"
       style="font-style:italic;font-variant:normal;font-weight:normal;font-stretch:normal;font-size:12px;font-family:'Times New Roman';-inkscape-font-specification:TimesNewRomanPS-ItalicMT;writing-mode:lr-tb;fill:#1d1d1b;fill-opacity:1;fill-rule:nonzero;stroke:none"
       transform="matrix(1,0,0,-1,277.9258,125.4346)"><tspan
         id="tspan236"
         y="0"
         x="0">o</tspan></text><text
       id="text242"
       style="font-style:italic;font-variant:normal;font-weight:normal;font-stretch:normal;font-size:6.996px;font-family:'Times New Roman';-inkscape-font-specification:TimesNewRomanPS-ItalicMT;writing-mode:lr-tb;fill:#1d1d1b;fill-opacity:1;fill-rule:nonzero;stroke:none"
       transform="matrix(1,0,0,-1,283.9258,121.4385)"><tspan
         id="tspan240"
         y="0"
         x="0">3</tspan></text><text
       id="text246"
       style="font-style:italic;font-variant:normal;font-weight:normal;font-stretch:normal;font-size:18px;font-family:'Times New Roman';-inkscape-font-specification:TimesNewRomanPS-ItalicMT;writing-mode:lr-tb;fill:#1d1d1b;fill-opacity:1;fill-rule:nonzero;stroke:none"
       transform="matrix(1,0,0,-1,260,8.3096)"><tspan
         id="tspan244"
         y="0"
         x="0">O</tspan></text><g
       id="g248"><g
         clip-path="url(#clipPath254)"
         id="g250"><path
           id="path256"
           style="fill:none;stroke:#1d1d1b;stroke-width:1;stroke-linecap:butt;stroke-linejoin:miter;stroke-miterlimit:10;stroke-dasharray:none;stroke-opacity:1"
           d="m 199.917,2.25 h -197 v 198.268 h 197 z" /><g
           id="g258"><g
             id="g260" /><g
             id="g276"><g
               id="g274"
               opacity="0.899994"
               clip-path="url(#clipPath264)"><g
                 id="g268"
                 transform="translate(121.9111,120.6069)"><path
                   id="path266"
                   style="fill:#94bed4;fill-opacity:1;fill-rule:nonzero;stroke:none"
                   d="m 0,0 c 0.528,-9.042 -6.097,-13.9 -14.21,-10.745 -34.007,13.182 -64.407,27.849 -90.69,36.283 -6.306,2.191 -7.683,6.109 -3.708,9.764 2.209,2.158 4.35,4.438 6.422,6.837 3.751,4.064 10.121,8.66 14.852,9.088 20.37,1.374 44.764,-5.656 72.761,-15.204 C -8.06,33.816 -1.691,24.481 -0.937,15.38 -0.556,10.23 -0.243,5.101 0,0" /></g><g
                 id="g272"
                 transform="translate(121.9111,120.6069)"><path
                   id="path270"
                   style="fill:none;stroke:#1d1d1b;stroke-width:1;stroke-linecap:butt;stroke-linejoin:miter;stroke-miterlimit:10;stroke-dasharray:none;stroke-opacity:1"
                   d="m 0,0 c 0.528,-9.042 -6.097,-13.9 -14.21,-10.745 -34.007,13.182 -64.407,27.849 -90.69,36.283 -6.306,2.191 -7.683,6.109 -3.708,9.764 2.209,2.158 4.35,4.438 6.422,6.837 3.751,4.064 10.121,8.66 14.852,9.088 20.37,1.374 44.764,-5.656 72.761,-15.204 C -8.06,33.816 -1.691,24.481 -0.937,15.38 -0.556,10.23 -0.243,5.101 0,0 Z" /></g></g></g></g></g></g><text
       id="text280"
       style="font-style:italic;font-variant:normal;font-weight:normal;font-stretch:normal;font-size:14px;font-family:'Times New Roman';-inkscape-font-specification:TimesNewRomanPS-ItalicMT;writing-mode:lr-tb;fill:#1d1d1b;fill-opacity:1;fill-rule:nonzero;stroke:none"
       transform="matrix(1,0,0,-1,29.48,157.833)"><tspan
         id="tspan278"
         y="0"
         x="0">A</tspan></text><text
       id="text284"
       style="font-style:italic;font-variant:normal;font-weight:normal;font-stretch:normal;font-size:8.162px;font-family:'Times New Roman';-inkscape-font-specification:TimesNewRomanPS-ItalicMT;writing-mode:lr-tb;fill:#1d1d1b;fill-opacity:1;fill-rule:nonzero;stroke:none"
       transform="matrix(1,0,0,-1,38.0317,153.1709)"><tspan
         id="tspan282"
         y="0"
         x="0">1</tspan></text><g
       id="g286"><g
         clip-path="url(#clipPath292)"
         id="g288"><g
           id="g294"><g
             id="g296" /><g
             id="g312"><g
               id="g310"
               opacity="0.800003"
               clip-path="url(#clipPath300)"><g
                 id="g304"
                 transform="translate(185.4141,93.4106)"><path
                   id="path302"
                   style="fill:#dbd4a1;fill-opacity:1;fill-rule:nonzero;stroke:none"
                   d="m 0,0 c -0.671,-6.89 -6.664,-13.164 -13.401,-13.692 -23.708,-1.934 -47.529,-1.092 -70.975,2.505 -6.657,1.034 -12.648,7.16 -13.431,13.364 -2.332,19.443 -4.663,38.887 -6.995,58.331 -0.782,6.213 5.136,10.483 13.233,9.923 28.242,-2.017 56.572,-0.726 84.414,3.837 C 0.822,75.585 6.694,71.371 6.022,64.471 4.015,42.981 2.008,21.491 0,0" /></g><g
                 id="g308"
                 transform="translate(185.4141,93.4106)"><path
                   id="path306"
                   style="fill:none;stroke:#1d1d1b;stroke-width:1;stroke-linecap:butt;stroke-linejoin:miter;stroke-miterlimit:10;stroke-dasharray:none;stroke-opacity:1"
                   d="m 0,0 c -0.671,-6.89 -6.664,-13.164 -13.401,-13.692 -23.708,-1.934 -47.529,-1.092 -70.975,2.505 -6.657,1.034 -12.648,7.16 -13.431,13.364 -2.332,19.443 -4.663,38.887 -6.995,58.331 -0.782,6.213 5.136,10.483 13.233,9.923 28.242,-2.017 56.572,-0.726 84.414,3.837 C 0.822,75.585 6.694,71.371 6.022,64.471 4.015,42.981 2.008,21.491 0,0 Z" /></g></g></g></g></g></g><text
       id="text316"
       style="font-style:italic;font-variant:normal;font-weight:normal;font-stretch:normal;font-size:14px;font-family:'Times New Roman';-inkscape-font-specification:TimesNewRomanPS-ItalicMT;writing-mode:lr-tb;fill:#1d1d1b;fill-opacity:1;fill-rule:nonzero;stroke:none"
       transform="matrix(1,0,0,-1,172.3311,152.3623)"><tspan
         id="tspan314"
         y="0"
         x="0">A</tspan></text><text
       id="text320"
       style="font-style:italic;font-variant:normal;font-weight:normal;font-stretch:normal;font-size:8.162px;font-family:'Times New Roman';-inkscape-font-specification:TimesNewRomanPS-ItalicMT;writing-mode:lr-tb;fill:#1d1d1b;fill-opacity:1;fill-rule:nonzero;stroke:none"
       transform="matrix(1,0,0,-1,180.8828,147.7002)"><tspan
         id="tspan318"
         y="0"
         x="0">2</tspan></text><g
       id="g322"><g
         clip-path="url(#clipPath328)"
         id="g324"><g
           id="g330"><g
             id="g332" /><g
             id="g348"><g
               id="g346"
               opacity="0.899994"
               clip-path="url(#clipPath336)"><g
                 id="g340"
                 transform="translate(123.3267,57.3887)"><path
                   id="path338"
                   style="fill:#b3a4ba;fill-opacity:1;fill-rule:nonzero;stroke:none"
                   d="m 0,0 c -0.983,-5.778 -6.442,-11.568 -12.104,-13.036 -17.794,-4.371 -34.298,-9.101 -49.866,-13.564 -4.989,-1.457 -10.484,3.093 -12.886,10.211 -2.969,9.01 -6.491,18.131 -10.683,27.364 -3.396,7.289 -1.171,14.224 5.871,15.278 21.408,3.292 44.647,5.8 69.89,6.669 C -1.483,33.15 4.618,28.281 3.533,22.399 2.334,14.854 1.125,7.397 0,0" /></g><g
                 id="g344"
                 transform="translate(123.3267,57.3887)"><path
                   id="path342"
                   style="fill:none;stroke:#1d1d1b;stroke-width:1;stroke-linecap:butt;stroke-linejoin:miter;stroke-miterlimit:10;stroke-dasharray:none;stroke-opacity:1"
                   d="m 0,0 c -0.983,-5.778 -6.442,-11.568 -12.104,-13.036 -17.794,-4.371 -34.298,-9.101 -49.866,-13.564 -4.989,-1.457 -10.484,3.093 -12.886,10.211 -2.969,9.01 -6.491,18.131 -10.683,27.364 -3.396,7.289 -1.171,14.224 5.871,15.278 21.408,3.292 44.647,5.8 69.89,6.669 C -1.483,33.15 4.618,28.281 3.533,22.399 2.334,14.854 1.125,7.397 0,0 Z" /></g></g></g></g></g></g><text
       id="text352"
       style="font-style:italic;font-variant:normal;font-weight:normal;font-stretch:normal;font-size:14px;font-family:'Times New Roman';-inkscape-font-specification:TimesNewRomanPS-ItalicMT;writing-mode:lr-tb;fill:#1d1d1b;fill-opacity:1;fill-rule:nonzero;stroke:none"
       transform="matrix(1,0,0,-1,44.8135,69.75)"><tspan
         id="tspan350"
         y="0"
         x="0">A</tspan></text><text
       id="text356"
       style="font-style:italic;font-variant:normal;font-weight:normal;font-stretch:normal;font-size:8.162px;font-family:'Times New Roman';-inkscape-font-specification:TimesNewRomanPS-ItalicMT;writing-mode:lr-tb;fill:#1d1d1b;fill-opacity:1;fill-rule:nonzero;stroke:none"
       transform="matrix(1,0,0,-1,53.3652,65.0879)"><tspan
         id="tspan354"
         y="0"
         x="0">3</tspan></text><g
       id="g358"><g
         clip-path="url(#clipPath364)"
         id="g360"><g
           transform="translate(166.1831,128.625)"
           id="g366"><path
             id="path368"
             style="fill:none;stroke:#878787;stroke-width:0.66;stroke-linecap:butt;stroke-linejoin:miter;stroke-miterlimit:10;stroke-dasharray:2.622, 2.622;stroke-dashoffset:0;stroke-opacity:1"
             d="M 0,0 C 1.25,-5.237 0.14,-9.99 -2.479,-10.615 -5.098,-11.24 -8.234,-7.5 -9.484,-2.263 -10.733,2.975 -9.624,7.728 -7.005,8.352 -4.386,8.977 -1.25,5.238 0,0 Z" /></g><g
           transform="translate(161.9106,132.8955)"
           id="g370"><path
             id="path372"
             style="fill:#1d1d1b;fill-opacity:1;fill-rule:nonzero;stroke:none"
             d="m 0,0 c 0,-0.863 -0.7,-1.562 -1.562,-1.562 -0.863,0 -1.563,0.699 -1.563,1.562 0,0.863 0.7,1.562 1.563,1.562 C -0.7,1.562 0,0.863 0,0" /></g></g></g><text
       id="text376"
       style="font-style:italic;font-variant:normal;font-weight:normal;font-stretch:normal;font-size:12px;font-family:'Times New Roman';-inkscape-font-specification:TimesNewRomanPS-ItalicMT;writing-mode:lr-tb;fill:#1d1d1b;fill-opacity:1;fill-rule:nonzero;stroke:none"
       transform="matrix(1,0,0,-1,163.4731,132.3633)"><tspan
         id="tspan374"
         y="0"
         x="0">g</tspan></text><text
       id="text380"
       style="font-style:italic;font-variant:normal;font-weight:normal;font-stretch:normal;font-size:6.996px;font-family:'Times New Roman';-inkscape-font-specification:TimesNewRomanPS-ItalicMT;writing-mode:lr-tb;fill:#1d1d1b;fill-opacity:1;fill-rule:nonzero;stroke:none"
       transform="matrix(1,0,0,-1,169.4731,128.3672)"><tspan
         id="tspan378"
         y="0"
         x="0">3</tspan></text><g
       id="g382"><g
         clip-path="url(#clipPath388)"
         id="g384"><g
           transform="translate(132.3179,107.0498)"
           id="g390"><path
             id="path392"
             style="fill:#1d1d1b;fill-opacity:1;fill-rule:nonzero;stroke:none"
             d="m 0,0 c 0,-0.863 -0.7,-1.562 -1.562,-1.562 -0.863,0 -1.563,0.699 -1.563,1.562 0,0.863 0.7,1.562 1.563,1.562 C -0.7,1.562 0,0.863 0,0" /></g></g></g><text
       id="text396"
       style="font-style:italic;font-variant:normal;font-weight:normal;font-stretch:normal;font-size:12px;font-family:'Times New Roman';-inkscape-font-specification:TimesNewRomanPS-ItalicMT;writing-mode:lr-tb;fill:#1d1d1b;fill-opacity:1;fill-rule:nonzero;stroke:none"
       transform="matrix(1,0,0,-1,134.6753,108.6123)"><tspan
         id="tspan394"
         y="0"
         x="0">g</tspan></text><text
       id="text400"
       style="font-style:italic;font-variant:normal;font-weight:normal;font-stretch:normal;font-size:6.996px;font-family:'Times New Roman';-inkscape-font-specification:TimesNewRomanPS-ItalicMT;writing-mode:lr-tb;fill:#1d1d1b;fill-opacity:1;fill-rule:nonzero;stroke:none"
       transform="matrix(1,0,0,-1,140.6753,104.6162)"><tspan
         id="tspan398"
         y="0"
         x="0">2</tspan></text><g
       id="g402"><g
         clip-path="url(#clipPath408)"
         id="g404"><g
           transform="translate(163.4731,122.9224)"
           id="g410"><path
             id="path412"
             style="fill:#1d1d1b;fill-opacity:1;fill-rule:nonzero;stroke:none"
             d="m 0,0 c 0,-0.863 -0.7,-1.562 -1.562,-1.562 -0.863,0 -1.563,0.699 -1.563,1.562 0,0.863 0.7,1.562 1.563,1.562 C -0.7,1.562 0,0.863 0,0" /></g></g></g><text
       id="text416"
       style="font-style:italic;font-variant:normal;font-weight:normal;font-stretch:normal;font-size:12px;font-family:'Times New Roman';-inkscape-font-specification:TimesNewRomanPS-ItalicMT;writing-mode:lr-tb;fill:#1d1d1b;fill-opacity:1;fill-rule:nonzero;stroke:none"
       transform="matrix(1,0,0,-1,164.5806,118.8066)"><tspan
         id="tspan414"
         y="0"
         x="0">g</tspan></text><text
       id="text420"
       style="font-style:italic;font-variant:normal;font-weight:normal;font-stretch:normal;font-size:6.996px;font-family:'Times New Roman';-inkscape-font-specification:TimesNewRomanPS-ItalicMT;writing-mode:lr-tb;fill:#1d1d1b;fill-opacity:1;fill-rule:nonzero;stroke:none"
       transform="matrix(1,0,0,-1,170.5806,114.8105)"><tspan
         id="tspan418"
         y="0"
         x="0">4</tspan></text><g
       id="g422"><g
         clip-path="url(#clipPath428)"
         id="g424"><g
           transform="translate(164.9644,45.5098)"
           id="g430"><path
             id="path432"
             style="fill:#1d1d1b;fill-opacity:1;fill-rule:nonzero;stroke:none"
             d="m 0,0 c 0,-0.863 -0.7,-1.562 -1.562,-1.562 -0.863,0 -1.563,0.699 -1.563,1.562 0,0.862 0.7,1.562 1.563,1.562 C -0.7,1.562 0,0.862 0,0" /></g></g></g><text
       id="text436"
       style="font-style:italic;font-variant:normal;font-weight:normal;font-stretch:normal;font-size:12px;font-family:'Times New Roman';-inkscape-font-specification:TimesNewRomanPS-ItalicMT;writing-mode:lr-tb;fill:#1d1d1b;fill-opacity:1;fill-rule:nonzero;stroke:none"
       transform="matrix(1,0,0,-1,167.3218,47.0713)"><tspan
         id="tspan434"
         y="0"
         x="0">g</tspan></text><text
       id="text440"
       style="font-style:italic;font-variant:normal;font-weight:normal;font-stretch:normal;font-size:6.996px;font-family:'Times New Roman';-inkscape-font-specification:TimesNewRomanPS-ItalicMT;writing-mode:lr-tb;fill:#1d1d1b;fill-opacity:1;fill-rule:nonzero;stroke:none"
       transform="matrix(1,0,0,-1,173.3218,43.0752)"><tspan
         id="tspan438"
         y="0"
         x="0">4</tspan></text><g
       id="g442"><g
         clip-path="url(#clipPath448)"
         id="g444"><g
           transform="translate(104.542,141.0005)"
           id="g450"><path
             id="path452"
             style="fill:#1d1d1b;fill-opacity:1;fill-rule:nonzero;stroke:none"
             d="m 0,0 c 0,-0.863 -0.7,-1.562 -1.562,-1.562 -0.863,0 -1.563,0.699 -1.563,1.562 0,0.863 0.7,1.562 1.563,1.562 C -0.7,1.562 0,0.863 0,0" /></g></g></g><text
       id="text456"
       style="font-style:italic;font-variant:normal;font-weight:normal;font-stretch:normal;font-size:12px;font-family:'Times New Roman';-inkscape-font-specification:TimesNewRomanPS-ItalicMT;writing-mode:lr-tb;fill:#1d1d1b;fill-opacity:1;fill-rule:nonzero;stroke:none"
       transform="matrix(1,0,0,-1,106.8994,138.0518)"><tspan
         id="tspan454"
         y="0"
         x="0">g</tspan></text><text
       id="text460"
       style="font-style:italic;font-variant:normal;font-weight:normal;font-stretch:normal;font-size:6.996px;font-family:'Times New Roman';-inkscape-font-specification:TimesNewRomanPS-ItalicMT;writing-mode:lr-tb;fill:#1d1d1b;fill-opacity:1;fill-rule:nonzero;stroke:none"
       transform="matrix(1,0,0,-1,112.8994,134.0557)"><tspan
         id="tspan458"
         y="0"
         x="0">1</tspan></text><text
       id="text464"
       style="font-style:italic;font-variant:normal;font-weight:normal;font-stretch:normal;font-size:18px;font-family:'Times New Roman';-inkscape-font-specification:TimesNewRomanPS-ItalicMT;writing-mode:lr-tb;fill:#1d1d1b;fill-opacity:1;fill-rule:nonzero;stroke:none"
       transform="matrix(1,0,0,-1,8.667,8.3086)"><tspan
         id="tspan462"
         y="0"
         x="0">G</tspan></text><g
       id="g466"><g
         clip-path="url(#clipPath472)"
         id="g468"><g
           transform="translate(186.0835,161.083)"
           id="g474"><path
             id="path476"
             style="fill:none;stroke:#1d1d1b;stroke-width:2;stroke-linecap:butt;stroke-linejoin:miter;stroke-miterlimit:10;stroke-dasharray:none;stroke-opacity:1"
             d="M 0,0 C 0,-0.699 34.941,25.457 71.658,2.745" /></g><g
           transform="translate(253.7012,160.4614)"
           id="g478"><path
             id="path480"
             style="fill:#1d1d1b;fill-opacity:1;fill-rule:nonzero;stroke:none"
             d="M 0,0 9.945,-0.712 5.59,8.258 Z" /></g><g
           transform="translate(133.25,104.583)"
           id="g482"><path
             id="path484"
             style="fill:none;stroke:#1d1d1b;stroke-width:1;stroke-linecap:butt;stroke-linejoin:miter;stroke-miterlimit:10;stroke-dasharray:none;stroke-opacity:1"
             d="M 0,0 C 25.076,-12.383 100.025,-46.95 173.159,-6.443" /></g><g
           transform="translate(306.9492,95.6475)"
           id="g486"><path
             id="path488"
             style="fill:#1d1d1b;fill-opacity:1;fill-rule:nonzero;stroke:none"
             d="M 0,0 2.579,4.266 -2.405,4.367 Z" /></g><g
           transform="translate(173.875,132.0312)"
           id="g490"><path
             id="path492"
             style="fill:none;stroke:#1d1d1b;stroke-width:1;stroke-linecap:butt;stroke-linejoin:miter;stroke-miterlimit:10;stroke-dasharray:none;stroke-opacity:1"
             d="M 0,0 C 13.414,4.034 54.377,14.975 93.412,-1.029" /></g><g
           transform="translate(265.6455,128.8926)"
           id="g494"><path
             id="path496"
             style="fill:#1d1d1b;fill-opacity:1;fill-rule:nonzero;stroke:none"
             d="M 0,0 4.937,0.691 1.871,4.622 Z" /></g><g
           transform="translate(166.6968,42.3828)"
           id="g498"><path
             id="path500"
             style="fill:none;stroke:#1d1d1b;stroke-width:1;stroke-linecap:butt;stroke-linejoin:miter;stroke-miterlimit:10;stroke-dasharray:none;stroke-opacity:1"
             d="M 0,0 C 41.122,-21.758 125.424,-16.695 161.101,6.402" /></g><g
           transform="translate(328.5869,46.3281)"
           id="g502"><path
             id="path504"
             style="fill:#1d1d1b;fill-opacity:1;fill-rule:nonzero;stroke:none"
             d="M 0,0 2.163,4.492 -2.809,4.12 Z" /></g></g></g><text
       id="text508"
       style="font-variant:normal;font-weight:normal;font-stretch:normal;font-size:10.494px;font-family:'Times New Roman';-inkscape-font-specification:TimesNewRomanPSMT;writing-mode:lr-tb;fill:#1d1d1b;fill-opacity:1;fill-rule:nonzero;stroke:none"
       transform="matrix(1,0,0,-1,219.3335,143.1963)"><tspan
         id="tspan506"
         y="0"
         x="0 5.2470002 10.494">obs</tspan></text><g
       id="g510"><g
         clip-path="url(#clipPath516)"
         id="g512"><g
           transform="translate(270.582,123.8408)"
           id="g518"><path
             id="path520"
             style="fill:none;stroke:#1d1d1b;stroke-width:1;stroke-linecap:butt;stroke-linejoin:miter;stroke-miterlimit:10;stroke-dasharray:none;stroke-opacity:1"
             d="M 0,0 C -13.414,-4.034 -54.377,-14.975 -93.412,1.029" /></g><g
           transform="translate(178.812,126.9795)"
           id="g522"><path
             id="path524"
             style="fill:#1d1d1b;fill-opacity:1;fill-rule:nonzero;stroke:none"
             d="m 0,0 -4.937,-0.691 3.066,-3.931 z" /></g></g></g><text
       id="text528"
       style="font-variant:normal;font-weight:normal;font-stretch:normal;font-size:10.494px;font-family:'Times New Roman';-inkscape-font-specification:TimesNewRomanPSMT;writing-mode:lr-tb;fill:#1d1d1b;fill-opacity:1;fill-rule:nonzero;stroke:none"
       transform="matrix(1,0,0,-1,217.3335,104.0986)"><tspan
         id="tspan526"
         y="0"
         x="0 5.2470002 10.494">obs</tspan></text><text
       id="text532"
       style="font-variant:normal;font-weight:normal;font-stretch:normal;font-size:8.162px;font-family:'Times New Roman';-inkscape-font-specification:TimesNewRomanPSMT;writing-mode:lr-tb;fill:#1d1d1b;fill-opacity:1;fill-rule:nonzero;stroke:none"
       transform="matrix(1,0,0,-1,231.9111,108.7549)"><tspan
         id="tspan530"
         y="0"
         x="0 2.7179461">-1</tspan></text></g></svg>
