<?xml version="1.0" encoding="utf-8"?>
<!-- Generator: Adobe Illustrator 16.0.3, SVG Export Plug-In . SVG Version: 6.00 Build 0)  -->
<!DOCTYPE svg PUBLIC "-//W3C//DTD SVG 1.1//EN" "http://www.w3.org/Graphics/SVG/1.1/DTD/svg11.dtd">
<svg version="1.1" id="Layer_1" xmlns="http://www.w3.org/2000/svg" xmlns:xlink="http://www.w3.org/1999/xlink" x="0px" y="0px"
	 width="185.875px" height="185.125px" viewBox="0 0 185.875 185.125" enable-background="new 0 0 185.875 185.125"
	 xml:space="preserve">
<path d="M156.65,166.305c-17.824-17.42-137.113-51.266-154.938-43.961c17.825-7.305,63.063-90.039,58.757-107.459
	c4.306,17.42,78.356,38.73,96.181,27.68C138.826,53.615,138.826,148.885,156.65,166.305z"/>
<g>
	<g opacity="0.9">
		<g>
			<path fill="#662483" stroke="#4C4A99" stroke-width="3" stroke-miterlimit="10" d="M164.771,115.13
				c-2.626,5.096-9.982,3.87-15.952-0.993c-21.089-17.055-43.353-30.548-59.873-39.806c-4.595-2.633-5.02-5.855-1.871-8.522
				c8.32-7.107,16.533-18.363,24.054-30.146c2.875-4.381,7.883-7.837,11.78-7.454c13.832,1.309,32.871,7.573,49.852,18.803
				c4.661,3.037,7.572,11.591,6.589,18.558C176.658,83.853,171.83,101.83,164.771,115.13z"/>
			
				<line fill="#662483" stroke="#4C4A99" stroke-width="3" stroke-miterlimit="10" x1="115.407" y1="37.422" x2="108.073" y2="31.755"/>
			
				<line fill="#662483" stroke="#4C4A99" stroke-width="3" stroke-miterlimit="10" x1="127.62" y1="32.428" x2="127.62" y2="23.595"/>
			<line fill="#662483" stroke="#4C4A99" stroke-width="3" stroke-miterlimit="10" x1="142.875" y1="37" x2="146.75" y2="26.625"/>
			
				<line fill="#662483" stroke="#4C4A99" stroke-width="3" stroke-miterlimit="10" x1="161.875" y1="46.417" x2="169.875" y2="37.422"/>
			
				<line fill="#662483" stroke="#4C4A99" stroke-width="3" stroke-miterlimit="10" x1="174.958" y1="56.833" x2="183.958" y2="55.5"/>
			<line fill="#662483" stroke="#4C4A99" stroke-width="3" stroke-miterlimit="10" x1="171.958" y1="72.833" x2="183.375" y2="74"/>
			<line fill="#662483" stroke="#4C4A99" stroke-width="3" stroke-miterlimit="10" x1="169.875" y1="90" x2="179.458" y2="94.833"/>
			
				<line fill="#662483" stroke="#4C4A99" stroke-width="3" stroke-miterlimit="10" x1="163.596" y1="106.5" x2="173.625" y2="111.833"/>
			
				<line fill="#662483" stroke="#4C4A99" stroke-width="3" stroke-miterlimit="10" x1="153.25" y1="111.833" x2="151.625" y2="122.25"/>
		</g>
	</g>
	<g opacity="0.9">
		<g>
			<path fill="#DEDC00" stroke="#E78B29" stroke-width="3" stroke-miterlimit="10" d="M34.401,107.34
				c-7.513,3.192-14.167,3.185-14.339-0.852c-0.98-14.781-1.836-30.836-4.645-48.277c-0.725-4.763,2.891-9.868,8.267-11.069
				c15.052-3.539,29.969-6.212,45.407-10.112c5.553-1.379,10.852,0.184,11.837,3.719c3.73,13.145,8.526,26.004,16.06,39.016
				c2.047,3.531-0.761,7.526-6.824,9.059C73.349,93.159,55.148,98.497,34.401,107.34z"/>
			<line fill="#DEDC00" stroke="#E78B29" stroke-width="3" stroke-miterlimit="10" x1="46.125" y1="37" x2="46.958" y2="48.167"/>
			<line fill="#DEDC00" stroke="#E78B29" stroke-width="3" stroke-miterlimit="10" x1="26" y1="41.334" x2="30.875" y2="51.5"/>
			
				<line fill="#DEDC00" stroke="#E78B29" stroke-width="3" stroke-miterlimit="10" x1="9.044" y1="59.377" x2="19.292" y2="60.125"/>
			
				<line fill="#DEDC00" stroke="#E78B29" stroke-width="3" stroke-miterlimit="10" x1="11.772" y1="76.809" x2="21.375" y2="75.975"/>
			<line fill="#DEDC00" stroke="#E78B29" stroke-width="3" stroke-miterlimit="10" x1="14.168" y1="92.167" x2="23.5" y2="90"/>
			<line fill="#DEDC00" stroke="#E78B29" stroke-width="3" stroke-miterlimit="10" x1="85" y1="68.75" x2="96.75" y2="65.154"/>
		</g>
	</g>
	<g opacity="0.9">
		<g>
			<path fill="#36A9E1" stroke="#1D71B8" stroke-width="3" stroke-miterlimit="10" d="M117.844,90.996
				c12.953,21.062,16.422,66.485-8.407,77.8c-24.665,9.429-60.634-12.763-71.577-25.858c-9.693-13.638,4.376-23.75,24.936-43.771
				C83.292,81.869,102.738,69.245,117.844,90.996z"/>
			
				<line fill="#36A9E1" stroke="#1D71B8" stroke-width="3" stroke-miterlimit="10" x1="72.045" y1="84.107" x2="77.114" y2="92.545"/>
			
				<line fill="#36A9E1" stroke="#1D71B8" stroke-width="3" stroke-miterlimit="10" x1="87.78" y1="75.975" x2="89.785" y2="86.082"/>
			
				<line fill="#36A9E1" stroke="#1D71B8" stroke-width="3" stroke-miterlimit="10" x1="107.489" y1="75.132" x2="104.489" y2="84.107"/>
			
				<line fill="#36A9E1" stroke="#1D71B8" stroke-width="3" stroke-miterlimit="10" x1="120.484" y1="84.279" x2="111.894" y2="89.789"/>
			
				<line fill="#36A9E1" stroke="#1D71B8" stroke-width="3" stroke-miterlimit="10" x1="43.864" y1="140.295" x2="32.822" y2="147.087"/>
			
				<line fill="#36A9E1" stroke="#1D71B8" stroke-width="3" stroke-miterlimit="10" x1="58.822" y1="153.753" x2="53.114" y2="162.753"/>
			
				<line fill="#36A9E1" stroke="#1D71B8" stroke-width="3" stroke-miterlimit="10" x1="110.239" y1="162.753" x2="116.728" y2="171.652"/>
			
				<line fill="#36A9E1" stroke="#1D71B8" stroke-width="3" stroke-miterlimit="10" x1="93.34" y1="166.301" x2="91.939" y2="176.795"/>
			
				<line fill="#36A9E1" stroke="#1D71B8" stroke-width="3" stroke-miterlimit="10" x1="73.452" y1="161.974" x2="68.111" y2="171.355"/>
		</g>
	</g>
</g>
</svg>
